<?xml version="1.0" standalone="no"?><svg xmlns="http://www.w3.org/2000/svg" viewBox="0 0 1440 320"><path fill="#f5f5dc" fill-opacity="1" d="M0,128L0,160L80,160L80,256L160,256L160,96L240,96L240,160L320,160L320,288L400,288L400,288L480,288L480,32L560,32L560,64L640,64L640,192L720,192L720,256L800,256L800,288L880,288L880,128L960,128L960,32L1040,32L1040,256L1120,256L1120,64L1200,64L1200,64L1280,64L1280,128L1360,128L1360,96L1440,96L1440,320L1360,320L1360,320L1280,320L1280,320L1200,320L1200,320L1120,320L1120,320L1040,320L1040,320L960,320L960,320L880,320L880,320L800,320L800,320L720,320L720,320L640,320L640,320L560,320L560,320L480,320L480,320L400,320L400,320L320,320L320,320L240,320L240,320L160,320L160,320L80,320L80,320L0,320L0,320Z"></path></svg>